<svg width="12" height="12" viewBox="0 0 12 12" fill="none" xmlns="http://www.w3.org/2000/svg">
<path d="M7.92305 6.56875H2.46708C2.30747 6.56875 2.17277 6.51386 2.06299 6.40407C1.95321 6.29429 1.89832 6.1596 1.89832 6C1.89832 5.8404 1.95321 5.70571 2.06299 5.59592C2.17277 5.48614 2.30747 5.43125 2.46708 5.43125H7.92305L5.58963 3.09782C5.47568 2.98387 5.42029 2.85027 5.42345 2.69701C5.42663 2.54375 5.48519 2.41015 5.59914 2.2962C5.71309 2.19058 5.84669 2.13618 5.99995 2.13301C6.15321 2.12984 6.28682 2.18523 6.40077 2.29918L9.70077 5.59918C9.75675 5.65516 9.79765 5.7173 9.82346 5.7856C9.84927 5.85389 9.86218 5.92536 9.86218 6C9.86218 6.07464 9.84927 6.14611 9.82346 6.2144C9.79765 6.2827 9.75675 6.34483 9.70077 6.40081L6.39778 9.7038C6.29017 9.81141 6.15865 9.86522 6.00322 9.86522C5.84778 9.86522 5.71309 9.81141 5.59914 9.7038C5.48519 9.58985 5.42822 9.45466 5.42822 9.29823C5.42822 9.1418 5.48519 9.00661 5.59914 8.89266L7.92305 6.56875Z" fill="white"/>
</svg>
